<mxfile host="app.diagrams.net" modified="2023-08-06T13:33:18.333Z" agent="Mozilla/5.0 (Windows NT 10.0; Win64; x64) AppleWebKit/537.36 (KHTML, like Gecko) Chrome/114.0.0.0 Safari/537.36" etag="0EQTtHmn6jLDlAwlwg-U" version="21.6.6" type="device">
  <diagram name="Page-1" id="b520641d-4fe3-3701-9064-5fc419738815">
    <mxGraphModel dx="1405" dy="785" grid="1" gridSize="10" guides="1" tooltips="1" connect="1" arrows="1" fold="1" page="1" pageScale="1" pageWidth="1100" pageHeight="850" background="none" math="0" shadow="0">
      <root>
        <mxCell id="0" />
        <mxCell id="1" parent="0" />
        <mxCell id="PULD30M9lQkgxNHhs9qU-26" value="Авторизация" style="rounded=1;whiteSpace=wrap;html=1;" parent="1" vertex="1">
          <mxGeometry x="319" y="240" width="581" height="30" as="geometry" />
        </mxCell>
        <mxCell id="PULD30M9lQkgxNHhs9qU-27" value="&lt;div style=&quot;&quot;&gt;&lt;span style=&quot;background-color: initial;&quot;&gt;заполнение данных сущностей БД&lt;/span&gt;&lt;/div&gt;" style="rounded=0;whiteSpace=wrap;html=1;align=left;" parent="1" vertex="1">
          <mxGeometry x="360" y="330" width="120" height="40" as="geometry" />
        </mxCell>
        <mxCell id="PULD30M9lQkgxNHhs9qU-28" value="&lt;div style=&quot;&quot;&gt;&lt;span style=&quot;background-color: initial;&quot;&gt;группировка сущностей БД&lt;/span&gt;&lt;/div&gt;" style="rounded=0;whiteSpace=wrap;html=1;align=left;" parent="1" vertex="1">
          <mxGeometry x="360" y="430" width="120" height="40" as="geometry" />
        </mxCell>
        <mxCell id="PULD30M9lQkgxNHhs9qU-29" value="&lt;div style=&quot;&quot;&gt;&lt;span style=&quot;background-color: initial;&quot;&gt;разграничение прав пользователей БД&lt;/span&gt;&lt;/div&gt;" style="rounded=0;whiteSpace=wrap;html=1;align=left;" parent="1" vertex="1">
          <mxGeometry x="360" y="530" width="120" height="40" as="geometry" />
        </mxCell>
        <mxCell id="PULD30M9lQkgxNHhs9qU-30" value="&lt;div style=&quot;&quot;&gt;&lt;span style=&quot;background-color: initial;&quot;&gt;построение иерархии сущностей&lt;/span&gt;&lt;/div&gt;" style="rounded=0;whiteSpace=wrap;html=1;align=left;" parent="1" vertex="1">
          <mxGeometry x="360" y="480" width="120" height="40" as="geometry" />
        </mxCell>
        <mxCell id="PULD30M9lQkgxNHhs9qU-31" value="&lt;div style=&quot;&quot;&gt;отправка запросов к БД&lt;/div&gt;" style="rounded=0;whiteSpace=wrap;html=1;align=left;" parent="1" vertex="1">
          <mxGeometry x="360" y="630" width="120" height="40" as="geometry" />
        </mxCell>
        <mxCell id="PULD30M9lQkgxNHhs9qU-32" value="&lt;div style=&quot;&quot;&gt;заполнение запросов к БД&lt;/div&gt;" style="rounded=0;whiteSpace=wrap;html=1;align=left;" parent="1" vertex="1">
          <mxGeometry x="360" y="580" width="120" height="40" as="geometry" />
        </mxCell>
        <mxCell id="PULD30M9lQkgxNHhs9qU-33" value="&lt;div style=&quot;&quot;&gt;настройка шаблонов отчётов&lt;/div&gt;" style="rounded=0;whiteSpace=wrap;html=1;align=left;" parent="1" vertex="1">
          <mxGeometry x="360" y="680" width="120" height="40" as="geometry" />
        </mxCell>
        <mxCell id="PULD30M9lQkgxNHhs9qU-34" value="&lt;div style=&quot;&quot;&gt;отображение отчётов&lt;/div&gt;" style="rounded=0;whiteSpace=wrap;html=1;align=left;" parent="1" vertex="1">
          <mxGeometry x="360" y="730" width="120" height="40" as="geometry" />
        </mxCell>
        <mxCell id="PULD30M9lQkgxNHhs9qU-35" value="&lt;div style=&quot;&quot;&gt;отображение параметров сущностей БД&lt;/div&gt;" style="rounded=0;whiteSpace=wrap;html=1;align=left;" parent="1" vertex="1">
          <mxGeometry x="360" y="380" width="120" height="40" as="geometry" />
        </mxCell>
        <mxCell id="PULD30M9lQkgxNHhs9qU-36" value="DB" style="shape=datastore;whiteSpace=wrap;html=1;" parent="1" vertex="1">
          <mxGeometry x="569" y="705" width="80" height="60" as="geometry" />
        </mxCell>
        <mxCell id="PULD30M9lQkgxNHhs9qU-37" value="&lt;div style=&quot;&quot;&gt;&lt;span style=&quot;background-color: initial;&quot;&gt;регистрация нового пользователя&lt;/span&gt;&lt;/div&gt;" style="rounded=0;whiteSpace=wrap;html=1;align=left;" parent="1" vertex="1">
          <mxGeometry x="783" y="375" width="120" height="40" as="geometry" />
        </mxCell>
        <mxCell id="PULD30M9lQkgxNHhs9qU-38" value="&lt;div style=&quot;&quot;&gt;&lt;span style=&quot;background-color: initial;&quot;&gt;проверка авторизации&lt;/span&gt;&lt;/div&gt;" style="rounded=0;whiteSpace=wrap;html=1;align=left;" parent="1" vertex="1">
          <mxGeometry x="783" y="325" width="120" height="40" as="geometry" />
        </mxCell>
        <mxCell id="PULD30M9lQkgxNHhs9qU-41" value="Web - приложение" style="rounded=1;whiteSpace=wrap;html=1;rotation=-90;" parent="1" vertex="1">
          <mxGeometry x="110" y="535" width="440" height="30" as="geometry" />
        </mxCell>
        <mxCell id="PULD30M9lQkgxNHhs9qU-42" value="Telegram - бот" style="rounded=1;whiteSpace=wrap;html=1;rotation=-90;" parent="1" vertex="1">
          <mxGeometry x="530" y="530" width="440" height="30" as="geometry" />
        </mxCell>
        <mxCell id="PULD30M9lQkgxNHhs9qU-43" value="Сервер приложений" style="rounded=1;whiteSpace=wrap;html=1;rotation=0;" parent="1" vertex="1">
          <mxGeometry x="544" y="625" width="130" height="50" as="geometry" />
        </mxCell>
        <mxCell id="PULD30M9lQkgxNHhs9qU-44" value="&lt;div style=&quot;&quot;&gt;&lt;span style=&quot;background-color: initial;&quot;&gt;рассылка сообщений&lt;/span&gt;&lt;/div&gt;" style="rounded=0;whiteSpace=wrap;html=1;align=left;" parent="1" vertex="1">
          <mxGeometry x="783" y="425" width="120" height="40" as="geometry" />
        </mxCell>
        <mxCell id="PULD30M9lQkgxNHhs9qU-45" value="&lt;div style=&quot;&quot;&gt;отображение отчётов&lt;/div&gt;" style="rounded=0;whiteSpace=wrap;html=1;align=left;" parent="1" vertex="1">
          <mxGeometry x="783" y="475" width="120" height="40" as="geometry" />
        </mxCell>
        <mxCell id="PULD30M9lQkgxNHhs9qU-46" value="&lt;div style=&quot;&quot;&gt;отправка запросов к БД&lt;/div&gt;" style="rounded=0;whiteSpace=wrap;html=1;align=left;" parent="1" vertex="1">
          <mxGeometry x="783" y="525" width="120" height="40" as="geometry" />
        </mxCell>
        <mxCell id="PULD30M9lQkgxNHhs9qU-47" value="&lt;div style=&quot;&quot;&gt;настройка параметров отчётов&lt;/div&gt;" style="rounded=0;whiteSpace=wrap;html=1;align=left;" parent="1" vertex="1">
          <mxGeometry x="783" y="575" width="120" height="40" as="geometry" />
        </mxCell>
        <mxCell id="PULD30M9lQkgxNHhs9qU-48" value="&lt;div style=&quot;&quot;&gt;обучение работе с системой&lt;/div&gt;" style="rounded=0;whiteSpace=wrap;html=1;align=left;" parent="1" vertex="1">
          <mxGeometry x="783" y="625" width="120" height="40" as="geometry" />
        </mxCell>
        <mxCell id="PULD30M9lQkgxNHhs9qU-49" value="Web - сервер" style="rounded=1;whiteSpace=wrap;html=1;rotation=0;" parent="1" vertex="1">
          <mxGeometry x="544" y="595" width="130" height="30" as="geometry" />
        </mxCell>
        <mxCell id="PULD30M9lQkgxNHhs9qU-51" value="&lt;div style=&quot;&quot;&gt;получение и обработка оперативной информации&lt;/div&gt;" style="rounded=0;whiteSpace=wrap;html=1;align=left;" parent="1" vertex="1">
          <mxGeometry x="783" y="675" width="120" height="60" as="geometry" />
        </mxCell>
        <mxCell id="PULD30M9lQkgxNHhs9qU-52" value="СУБД" style="rounded=1;whiteSpace=wrap;html=1;rotation=0;" parent="1" vertex="1">
          <mxGeometry x="544" y="675" width="130" height="30" as="geometry" />
        </mxCell>
        <mxCell id="PULD30M9lQkgxNHhs9qU-53" value="" style="shape=ext;double=1;rounded=1;whiteSpace=wrap;html=1;shadow=0;fillColor=none;" parent="1" vertex="1">
          <mxGeometry x="296" y="310" width="204" height="480" as="geometry" />
        </mxCell>
        <mxCell id="PULD30M9lQkgxNHhs9qU-54" value="" style="shape=ext;double=1;rounded=1;whiteSpace=wrap;html=1;shadow=0;fillColor=none;" parent="1" vertex="1">
          <mxGeometry x="717.5" y="310" width="204" height="480" as="geometry" />
        </mxCell>
        <mxCell id="PULD30M9lQkgxNHhs9qU-55" value="" style="shape=actor;whiteSpace=wrap;html=1;shadow=0;fillColor=none;" parent="1" vertex="1">
          <mxGeometry x="590" y="104" width="40" height="60" as="geometry" />
        </mxCell>
        <mxCell id="PULD30M9lQkgxNHhs9qU-56" value="" style="sketch=0;pointerEvents=1;shadow=0;dashed=0;html=1;strokeColor=none;fillColor=#505050;labelPosition=center;verticalLabelPosition=bottom;verticalAlign=top;outlineConnect=0;align=center;shape=mxgraph.office.devices.workstation;" parent="1" vertex="1">
          <mxGeometry x="508" y="144" width="53" height="56" as="geometry" />
        </mxCell>
        <mxCell id="PULD30M9lQkgxNHhs9qU-57" value="" style="sketch=0;pointerEvents=1;shadow=0;dashed=0;html=1;strokeColor=none;fillColor=#505050;labelPosition=center;verticalLabelPosition=bottom;verticalAlign=top;outlineConnect=0;align=center;shape=mxgraph.office.devices.cell_phone_generic;" parent="1" vertex="1">
          <mxGeometry x="660" y="163" width="21" height="37" as="geometry" />
        </mxCell>
        <mxCell id="PULD30M9lQkgxNHhs9qU-58" value="" style="shape=ext;double=1;rounded=1;whiteSpace=wrap;html=1;shadow=0;fillColor=none;" parent="1" vertex="1">
          <mxGeometry x="507" y="570" width="204" height="220" as="geometry" />
        </mxCell>
        <mxCell id="PULD30M9lQkgxNHhs9qU-59" value="" style="html=1;shadow=0;dashed=0;align=center;verticalAlign=middle;shape=mxgraph.arrows2.quadArrow;dy=10;dx=20;notch=24;arrowHead=10;fillColor=none;" parent="1" vertex="1">
          <mxGeometry x="510" y="280" width="200" height="280" as="geometry" />
        </mxCell>
        <mxCell id="PULD30M9lQkgxNHhs9qU-60" value="" style="shape=flexArrow;endArrow=classic;startArrow=classic;html=1;rounded=0;" parent="1" edge="1">
          <mxGeometry width="100" height="100" relative="1" as="geometry">
            <mxPoint x="609.5" y="240" as="sourcePoint" />
            <mxPoint x="609.5" y="175" as="targetPoint" />
          </mxGeometry>
        </mxCell>
      </root>
    </mxGraphModel>
  </diagram>
</mxfile>
